<?xml version="1.0" encoding="utf-8"?>
<!-- Generator: Adobe Illustrator 16.0.4, SVG Export Plug-In . SVG Version: 6.00 Build 0)  -->
<!DOCTYPE svg PUBLIC "-//W3C//DTD SVG 1.1//EN" "http://www.w3.org/Graphics/SVG/1.1/DTD/svg11.dtd">
<svg version="1.1" id="Layer_1" xmlns="http://www.w3.org/2000/svg" xmlns:xlink="http://www.w3.org/1999/xlink" x="0px" y="0px"
	 width="127px" height="22px" viewBox="0 0 127 22" enable-background="new 0 0 127 22" xml:space="preserve">
<g>
	<g>
		<g>
			<path fill="#043B55" d="M33.242,5.895c-0.643,0-1.169-0.187-1.585-0.559c-0.418-0.372-0.625-0.854-0.625-1.442
				s0.207-1.066,0.625-1.43c0.416-0.365,0.942-0.547,1.585-0.547c0.659,0,1.191,0.182,1.599,0.547c0.409,0.363,0.61,0.841,0.61,1.43
				s-0.201,1.07-0.61,1.442C34.434,5.708,33.901,5.895,33.242,5.895z M31.346,7.792h3.82v12.896h-3.82V7.792z"/>
			<path fill="#043B55" d="M39.56,7.792h3.118l0.262,1.639h0.103c0.555-0.52,1.161-0.976,1.82-1.364
				c0.659-0.39,1.431-0.586,2.313-0.586c1.404,0,2.423,0.461,3.055,1.379s0.951,2.192,0.951,3.822v8.007h-3.823v-7.514
				c0-0.938-0.127-1.577-0.377-1.925c-0.251-0.347-0.654-0.519-1.209-0.519c-0.485,0-0.901,0.106-1.247,0.324
				c-0.348,0.217-0.728,0.523-1.145,0.924v8.709H39.56V7.792z"/>
			<path fill="#043B55" d="M55.47,2.464h3.821v4.471l-0.184,2.313c0.485-0.433,1.05-0.834,1.691-1.207
				c0.642-0.374,1.403-0.561,2.288-0.561c1.403,0,2.421,0.461,3.055,1.379c0.632,0.918,0.949,2.192,0.949,3.822v8.007H63.27v-7.514
				c0-0.938-0.126-1.577-0.378-1.925c-0.252-0.347-0.654-0.519-1.209-0.519c-0.484,0-0.9,0.106-1.247,0.324
				c-0.349,0.217-0.729,0.523-1.145,0.924v8.709H55.47V2.464z"/>
			<path fill="#043B55" d="M70.601,14.24c0-1.075,0.174-2.03,0.519-2.873c0.347-0.841,0.81-1.546,1.392-2.119
				c0.579-0.571,1.251-1.008,2.015-1.312c0.762-0.304,1.551-0.456,2.366-0.456c0.814,0,1.599,0.152,2.353,0.456
				c0.755,0.304,1.421,0.74,2.002,1.312c0.582,0.573,1.044,1.278,1.392,2.119c0.345,0.843,0.518,1.798,0.518,2.873
				s-0.173,2.032-0.518,2.872c-0.348,0.842-0.81,1.546-1.392,2.119c-0.581,0.571-1.247,1.009-2.002,1.312
				C78.49,20.847,77.706,21,76.892,21c-0.815,0-1.604-0.153-2.366-0.456c-0.764-0.304-1.436-0.741-2.015-1.312
				c-0.582-0.573-1.045-1.277-1.392-2.119C70.774,16.272,70.601,15.315,70.601,14.24z M74.525,14.24
				c0,1.128,0.194,2.019,0.585,2.679c0.391,0.659,0.984,0.986,1.781,0.986c0.779,0,1.368-0.327,1.769-0.986
				c0.397-0.66,0.596-1.551,0.596-2.679c0-1.126-0.198-2.019-0.596-2.678c-0.4-0.659-0.989-0.987-1.769-0.987
				c-0.797,0-1.391,0.328-1.781,0.987S74.525,13.114,74.525,14.24z"/>
			<path fill="#043B55" d="M86.692,7.792h3.822v7.516c0,0.935,0.13,1.576,0.389,1.923c0.26,0.348,0.668,0.52,1.222,0.52
				c0.484,0,0.894-0.112,1.223-0.338s0.685-0.59,1.067-1.092V7.792h3.819v12.896h-3.12l-0.284-1.796h-0.078
				c-0.556,0.66-1.15,1.177-1.78,1.548C92.339,20.813,91.58,21,90.696,21c-1.404,0-2.423-0.46-3.055-1.379
				c-0.635-0.918-0.949-2.192-0.949-3.821V7.792z"/>
			<path fill="#043B55" d="M103.201,16.813c0.588,0.452,1.15,0.789,1.688,1.016c0.537,0.227,1.084,0.337,1.639,0.337
				c0.571,0,0.987-0.095,1.248-0.286c0.26-0.188,0.39-0.459,0.39-0.808c0-0.206-0.073-0.392-0.222-0.557
				c-0.146-0.164-0.345-0.317-0.599-0.455c-0.25-0.139-0.531-0.265-0.843-0.377c-0.312-0.113-0.635-0.238-0.964-0.376
				c-0.397-0.157-0.796-0.339-1.195-0.548c-0.397-0.208-0.762-0.462-1.093-0.766c-0.328-0.304-0.596-0.66-0.806-1.065
				c-0.206-0.408-0.312-0.881-0.312-1.418c0-0.589,0.118-1.135,0.352-1.637c0.235-0.504,0.567-0.929,1.001-1.274
				c0.432-0.348,0.953-0.619,1.561-0.819c0.606-0.199,1.282-0.3,2.026-0.3c0.988,0,1.854,0.17,2.602,0.508
				c0.743,0.337,1.394,0.714,1.949,1.131l-1.717,2.288c-0.467-0.347-0.927-0.615-1.377-0.808c-0.452-0.19-0.902-0.285-1.353-0.285
				c-0.971,0-1.455,0.337-1.455,1.014c0,0.209,0.068,0.388,0.207,0.533c0.141,0.149,0.325,0.283,0.559,0.403
				c0.233,0.122,0.504,0.239,0.808,0.351c0.304,0.112,0.619,0.229,0.947,0.351c0.417,0.157,0.83,0.335,1.234,0.534
				c0.409,0.198,0.781,0.444,1.12,0.74c0.338,0.296,0.61,0.656,0.817,1.079c0.209,0.426,0.312,0.932,0.312,1.521
				c0,0.588-0.114,1.134-0.338,1.636c-0.225,0.505-0.564,0.941-1.014,1.314c-0.45,0.372-1.004,0.667-1.664,0.883
				c-0.659,0.218-1.421,0.326-2.289,0.326c-0.849,0-1.72-0.165-2.611-0.493c-0.894-0.33-1.67-0.764-2.327-1.301L103.201,16.813z"/>
			<path fill="#043B55" d="M114.433,14.24c0-1.04,0.171-1.979,0.518-2.82c0.348-0.841,0.802-1.552,1.365-2.132
				c0.565-0.581,1.209-1.027,1.937-1.339c0.729-0.312,1.481-0.469,2.263-0.469c0.918,0,1.719,0.156,2.405,0.469
				c0.685,0.312,1.256,0.744,1.716,1.299c0.459,0.555,0.802,1.21,1.025,1.963c0.225,0.755,0.339,1.574,0.339,2.458
				c0,0.345-0.016,0.664-0.053,0.947c-0.033,0.288-0.069,0.509-0.104,0.664h-7.721c0.174,0.987,0.56,1.703,1.157,2.145
				c0.6,0.441,1.332,0.662,2.196,0.662c0.92,0,1.847-0.285,2.781-0.856l1.274,2.314c-0.657,0.448-1.39,0.805-2.197,1.063
				C122.528,20.87,121.735,21,120.955,21c-0.918,0-1.776-0.153-2.574-0.456c-0.795-0.304-1.488-0.745-2.078-1.324
				c-0.588-0.581-1.048-1.286-1.376-2.119C114.596,16.268,114.433,15.315,114.433,14.24z M122.751,12.914
				c0-0.745-0.166-1.352-0.493-1.818c-0.331-0.469-0.886-0.703-1.667-0.703c-0.604,0-1.138,0.203-1.597,0.611
				c-0.459,0.407-0.759,1.044-0.896,1.91H122.751z"/>
		</g>
	</g>
	<g>
		<g>
			<path fill="#043B55" d="M3.209,5.233c0.623,0,1.146-0.199,1.573-0.599c0.426-0.398,0.637-0.909,0.637-1.529
				c0-0.621-0.211-1.127-0.637-1.518C4.355,1.196,3.832,1,3.209,1C2.607,1,2.087,1.196,1.654,1.588C1.22,1.979,1,2.484,1,3.105
				c0,0.62,0.22,1.131,0.654,1.529C2.087,5.034,2.607,5.233,3.209,5.233z"/>
			<rect x="1.394" y="7.444" fill="#043B55" width="3.635" height="13.243"/>
		</g>
		<rect x="7.94" y="1" fill="#E61B5A" width="3.633" height="19.688"/>
		<rect x="14.486" y="6.912" fill="#E61B5A" width="3.632" height="13.775"/>
	</g>
</g>
</svg>

